<svg width="100%" height="100%" viewBox="0 0 28 28" fill="none" xmlns="http://www.w3.org/2000/svg">
<rect width="28" height="28" rx="14" fill="#D2D4DA"/>
<path fill-rule="evenodd" clip-rule="evenodd" d="M11.7092 11.0643C11.9629 11.1173 12.1614 11.3258 12.1626 11.585C12.1626 11.5894 12.1626 11.5938 12.1626 11.5983C12.1624 13.568 10.565 15.1647 8.59521 15.1647C6.62543 15.1647 5.02905 13.568 5.02881 11.5983C5.02881 11.085 5.13711 10.5969 5.33224 10.1558C5.43691 9.91926 5.7007 9.80765 5.95392 9.86061L11.7092 11.0643Z" fill="#8E929D"/>
<path fill-rule="evenodd" clip-rule="evenodd" d="M16.2908 11.0643C16.0371 11.1173 15.8386 11.3258 15.8374 11.585C15.8374 11.5894 15.8374 11.5938 15.8374 11.5983C15.8376 13.568 17.435 15.1647 19.4048 15.1647C21.3746 15.1647 22.971 13.568 22.9712 11.5983C22.9712 11.085 22.8629 10.5969 22.6678 10.1558C22.5631 9.91926 22.2993 9.80765 22.0461 9.86061L16.2908 11.0643Z" fill="#8E929D"/>
<path d="M9.26427 19.3652C11.4354 17.0232 16.5637 17.0232 18.7349 19.3652" stroke="#8E929D" stroke-width="1.995" stroke-linecap="round"/>
</svg>
